<?xml version="1.0" encoding="UTF-8" standalone="no"?>
<svg
   data-v-1084b650=""
   viewBox="0 0 300 300"
   version="1.1"
   id="svg13"
   sodipodi:docname="icon.svg"
   inkscape:version="1.1 (ce6663b3b7, 2021-05-25)"
   xmlns:inkscape="http://www.inkscape.org/namespaces/inkscape"
   xmlns:sodipodi="http://sodipodi.sourceforge.net/DTD/sodipodi-0.dtd"
   xmlns="http://www.w3.org/2000/svg"
   xmlns:svg="http://www.w3.org/2000/svg">
  <defs
     id="defs17" />
  <sodipodi:namedview
     id="namedview15"
     pagecolor="#ffffff"
     bordercolor="#666666"
     borderopacity="1.0"
     inkscape:pageshadow="2"
     inkscape:pageopacity="0.0"
     inkscape:pagecheckerboard="0"
     showgrid="false"
     inkscape:zoom="1.4066667"
     inkscape:cx="215.75829"
     inkscape:cy="93.483412"
     inkscape:window-width="1866"
     inkscape:window-height="1016"
     inkscape:window-x="54"
     inkscape:window-y="27"
     inkscape:window-maximized="1"
     inkscape:current-layer="svg13" />
  <!---->
  <!---->
  <!---->
  <!---->
  <g
     data-v-1084b650=""
     id="640fb903-7c97-3a8b-d0a7-369102908d0a"
     fill="#FFD7D7"
     stroke="none"
     transform="matrix(0.8499999999999999,0,0,0.8499999999999999,22.500006484985377,22.50005836486818)">
    <svg
       viewBox="-205 207 100 100"
       version="1.1"
       id="svg10">
      <switch
         id="switch8">
        <g
           id="g6">
          <path
             d="M-155 298.8c11.2 0 21.7-4.3 29.6-12.2 7.9-7.9 12.2-18.4 12.2-29.6 0-11.2-4.3-21.7-12.2-29.6-7.9-7.9-18.4-12.2-29.6-12.2s-21.7 4.3-29.6 12.2c-7.9 7.9-12.2 18.4-12.2 29.6 0 11.2 4.3 21.7 12.2 29.6 7.9 7.9 18.4 12.2 29.6 12.2zm2.4-7.1c-.8.1-1.6.1-2.4.1-1.1 0-2.2-.1-3.3-.2-3.6-5.6-6.3-11.6-7.9-17.9h17.7c.6 1.5 1.7 2.9 3 3.8-1.7 5-4.1 9.7-7.1 14.2zm9.5-2c1.9-3.5 3.4-7 4.6-10.7 2.9-.6 5.2-2.6 6.3-5.3h7.7c-4 7.3-10.7 13-18.6 16zm22.8-32.7c0 3.3-.5 6.5-1.3 9.6h-10.8c-.6-1.3-1.6-2.5-2.8-3.4.2-2.2.3-4.4.3-6.6 0-3.1-.2-6.2-.6-9.2h13.8c1 3 1.4 6.3 1.4 9.6zm-4.2-16.7h-12.2c-1.3-5.5-3.2-10.7-5.8-15.7 7.6 2.9 14 8.6 18 15.7zm-17.4 16.3c0 1.7-.1 3.4-.2 5.1-2.8.6-5.1 2.4-6.2 4.9h-19.3c-.4-3-.7-6.1-.7-9.1 0-1.9.1-3.8.3-5.7 2.6-.5 4.7-2.2 6-4.4h19.5c.4 3 .6 6.1.6 9.2zm-15.7-34.2c.9-.1 1.8-.1 2.6-.1 1 0 2 0 3 .1 3.6 5.6 6.3 11.6 7.9 17.9h-17.4c-.6-1.7-1.7-3.2-3.1-4.3 1.8-4.8 4.1-9.3 7-13.6zm-9.5 2c-1.7 3.2-3.2 6.6-4.4 10-3.1.6-5.6 2.9-6.6 5.8h-7.3c3.9-7.1 10.4-12.8 18.3-15.8zm-22.6 32.6c0-3.3.5-6.6 1.4-9.6h10.9c.6 1.1 1.5 2.1 2.5 2.9-.2 2.4-.4 4.8-.4 7.2 0 3.1.2 6.1.6 9.1h-13.6c-1-3.1-1.4-6.3-1.4-9.6zm16.2 16.6c1.3 5.4 3.2 10.7 5.8 15.7-7.6-3-13.9-8.6-17.8-15.7h12z"
             id="path4" />
        </g>
      </switch>
    </svg>
  </g>
</svg>
