<?xml version="1.0" standalone="no"?>
<!DOCTYPE svg PUBLIC "-//W3C//DTD SVG 20010904//EN" "http://www.w3.org/TR/2001/REC-SVG-20010904/DTD/svg10.dtd">
<!-- Created using Krita: https://krita.org -->
<svg xmlns="http://www.w3.org/2000/svg" 
    xmlns:xlink="http://www.w3.org/1999/xlink"
    xmlns:krita="http://krita.org/namespaces/svg/krita"
    xmlns:sodipodi="http://sodipodi.sourceforge.net/DTD/sodipodi-0.dtd"
    width="921.6pt"
    height="161.28pt"
    viewBox="0 0 921.6 161.28">
<defs/>
<g id="b5a93e15-ef7c-9d7a-680b-cdb17474f15f" transform="matrix(8.46235854729377 0 0 8.46235854729377 194.956291158319 16.8014255941806)" fill="none">
  <path id="path4" transform="translate(0.289999999999992, 2.42)" fill="#fd2d01" stroke="#000000" stroke-opacity="0" stroke-width="0" stroke-linecap="square" stroke-linejoin="bevel" d="M5.12 10.25L5.12 10.25C3.66667 10.25 2.45 9.76 1.47 8.78L1.47 8.78L1.47 8.78C0.49 7.8 0 6.57667 0 5.11L0 5.11L0 5.11C0 3.67 0.49 2.45667 1.47 1.47L1.47 1.47L1.47 1.47C2.45 0.49 3.66667 0 5.12 0L5.12 0L5.12 0C6.58 0 7.83333 0.456667 8.88 1.37L8.88 1.37L7.52 2.86L7.52 2.86C6.82 2.31333 6.02 2.04 5.12 2.04L5.12 2.04L5.12 2.04C4.2 2.04667 3.45667 2.33667 2.89 2.91L2.89 2.91L2.89 2.91C2.33 3.47667 2.05 4.20333 2.05 5.09L2.05 5.09L2.05 5.09C2.05 6.04333 2.33333 6.8 2.9 7.36L2.9 7.36L2.9 7.36C3.46667 7.92 4.21 8.2 5.13 8.2L5.13 8.2L5.13 8.2C5.87 8.2 6.43667 8.05667 6.83 7.77L6.83 7.77L6.83 6.01L5.47 6.02L5.47 4.1L8.88 4.1L8.88 8.89L8.88 8.89C7.84 9.79667 6.58667 10.25 5.12 10.25ZM12.55 3.41L12.55 4.17L12.55 4.17C13.0433 3.67 13.64 3.42 14.34 3.42L14.34 3.42L14.34 3.42C14.56 3.42 14.77 3.43667 14.97 3.47L14.97 3.47L14.67 5.36L14.67 5.36C14.45 5.16 14.1333 5.05333 13.72 5.04L13.72 5.04L13.72 5.04C13.2533 5.07333 12.8633 5.41 12.55 6.05L12.55 6.05L12.55 10.25L10.64 10.25L10.64 3.62ZM19.32 10.32L19.32 10.32C18.3267 10.32 17.4967 9.98667 16.83 9.32L16.83 9.32L16.83 9.32C16.17 8.65333 15.84 7.82667 15.84 6.84L15.84 6.84L15.84 6.84C15.84 5.84667 16.17 5.01667 16.83 4.35L16.83 4.35L16.83 4.35C17.4967 3.68333 18.3267 3.35 19.32 3.35L19.32 3.35L19.32 3.35C20.3133 3.35 21.1433 3.68333 21.81 4.35L21.81 4.35L21.81 4.35C22.4767 5.01667 22.81 5.84667 22.81 6.84L22.81 6.84L22.81 6.84C22.81 7.83333 22.4767 8.66 21.81 9.32L21.81 9.32L21.81 9.32C21.1433 9.98667 20.3133 10.32 19.32 10.32ZM19.32 8.67L19.32 8.67L19.32 8.67C19.8333 8.67 20.2533 8.49333 20.58 8.14L20.58 8.14L20.58 8.14C20.9067 7.79333 21.07 7.36 21.07 6.84L21.07 6.84L21.07 6.84C21.07 6.32 20.9067 5.88667 20.58 5.54L20.58 5.54L20.58 5.54C20.2533 5.18667 19.83 5.01 19.31 5.01L19.31 5.01L19.31 5.01C18.7967 5.01 18.3767 5.18667 18.05 5.54L18.05 5.54L18.05 5.54C17.73 5.88667 17.57 6.32 17.57 6.84L17.57 6.84L17.57 6.84C17.57 7.36 17.73 7.79333 18.05 8.14L18.05 8.14L18.05 8.14C18.3767 8.49333 18.8 8.67 19.32 8.67ZM28.23 7.83L28.23 7.83L28.23 3.41L30.14 3.41L30.14 10.25L28.23 10.25L28.23 9.63L28.23 9.63C27.77 10.0433 27.2233 10.25 26.59 10.25L26.59 10.25L26.59 10.25C25.7233 10.25 25.0633 9.98667 24.61 9.46L24.61 9.46L24.61 9.46C24.15 8.93333 23.92 8.33 23.92 7.65L23.92 7.65L23.92 3.41L25.84 3.41L25.84 7.17L25.84 7.17C25.84 7.62333 25.9533 7.97667 26.18 8.23L26.18 8.23L26.18 8.23C26.4067 8.48333 26.75 8.61667 27.21 8.63L27.21 8.63L27.21 8.63C27.61 8.60333 27.95 8.33667 28.23 7.83ZM33.68 13.13L31.77 13.12L31.77 3.62L33.68 3.41L33.68 3.96L33.68 3.96C34.1933 3.59333 34.6967 3.41 35.19 3.41L35.19 3.41L35.19 3.41C36.2367 3.41 37.0667 3.75333 37.68 4.44L37.68 4.44L37.68 4.44C38.3 5.12 38.61 5.91667 38.61 6.83L38.61 6.83L38.61 6.83C38.61 7.74333 38.3 8.54 37.68 9.22L37.68 9.22L37.68 9.22C37.0667 9.90667 36.2367 10.25 35.19 10.25L35.19 10.25L35.19 10.25C34.5033 10.2033 34 10.0167 33.68 9.69L33.68 9.69ZM33.68 6.21L33.68 6.21L33.68 7.32L33.68 7.32C33.7733 8.08667 34.2533 8.53667 35.12 8.67L35.12 8.67L35.12 8.67C36.2133 8.58333 36.83 8.01667 36.97 6.97L36.97 6.97L36.97 6.97C36.9233 5.69 36.3067 5.02667 35.12 4.98L35.12 4.98L35.12 4.98C34.2533 5.12 33.7733 5.53 33.68 6.21ZM43.06 10.32L43.06 10.32C42.0667 10.32 41.24 9.98667 40.58 9.32L40.58 9.32L40.58 9.32C39.9133 8.65333 39.58 7.82667 39.58 6.84L39.58 6.84L39.58 6.84C39.58 5.84667 39.9133 5.01667 40.58 4.35L40.58 4.35L40.58 4.35C41.24 3.68333 42.0667 3.35 43.06 3.35L43.06 3.35L43.06 3.35C44.0533 3.35 44.8833 3.68333 45.55 4.35L45.55 4.35L45.55 4.35C46.2167 5.01667 46.55 5.84667 46.55 6.84L46.55 6.84L46.55 6.84C46.55 7.83333 46.2167 8.66 45.55 9.32L45.55 9.32L45.55 9.32C44.8833 9.98667 44.0533 10.32 43.06 10.32ZM43.06 8.67L43.06 8.67L43.06 8.67C43.58 8.67 44 8.49333 44.32 8.14L44.32 8.14L44.32 8.14C44.6467 7.79333 44.81 7.36 44.81 6.84L44.81 6.84L44.81 6.84C44.81 6.32 44.6467 5.88667 44.32 5.54L44.32 5.54L44.32 5.54C44 5.18667 43.5767 5.01 43.05 5.01L43.05 5.01L43.05 5.01C42.5367 5.01 42.1167 5.18667 41.79 5.54L41.79 5.54L41.79 5.54C41.47 5.88667 41.31 6.32 41.31 6.84L41.31 6.84L41.31 6.84C41.31 7.36 41.47 7.79333 41.79 8.14L41.79 8.14L41.79 8.14C42.1167 8.49333 42.54 8.67 43.06 8.67ZM49.74 5.88L49.74 5.88L49.74 10.25L47.82 10.25L47.82 3.62L49.74 3.41L49.74 4.02L49.74 4.02C50.1667 3.62 50.7133 3.42 51.38 3.42L51.38 3.42L51.38 3.42C52.24 3.42 52.9 3.68 53.36 4.2L53.36 4.2L53.36 4.2C53.86 3.68 54.61 3.42 55.61 3.42L55.61 3.42L55.61 3.42C56.4767 3.42 57.14 3.68 57.6 4.2L57.6 4.2L57.6 4.2C58.0533 4.72667 58.28 5.33333 58.28 6.02L58.28 6.02L58.28 10.25L56.37 10.25L56.37 6.49L56.37 6.49C56.37 6.03667 56.2667 5.68333 56.06 5.43L56.06 5.43L56.06 5.43C55.8533 5.18333 55.52 5.05333 55.06 5.04L55.06 5.04L55.06 5.04C54.68 5.06667 54.3533 5.31667 54.08 5.79L54.08 5.79L54.08 5.79C54.0533 5.93 54.04 6.07333 54.04 6.22L54.04 6.22L54.04 10.25L52.13 10.25L52.13 6.49L52.13 6.49C52.13 6.03667 52.0267 5.68333 51.82 5.43L51.82 5.43L51.82 5.43C51.6133 5.18333 51.28 5.05333 50.82 5.04L50.82 5.04L50.82 5.04C50.4 5.06667 50.04 5.34667 49.74 5.88ZM60.85 5.4L60.1 4.24L60.1 4.24C60.9667 3.69333 61.97 3.42 63.11 3.42L63.11 3.42L63.11 3.42C63.93 3.42 64.5767 3.64667 65.05 4.1L65.05 4.1L65.05 4.1C65.53 4.56 65.77 5.24333 65.77 6.15L65.77 6.15L65.77 10.25L63.86 10.25L63.86 9.71L63.86 9.71C63.3 10.07 62.7967 10.25 62.35 10.25L62.35 10.25L62.35 10.25C61.4433 10.25 60.76 10.0567 60.3 9.67L60.3 9.67L60.3 9.67C59.8467 9.28333 59.62 8.75 59.62 8.07L59.62 8.07L59.62 8.07C59.62 7.43 59.8367 6.86 60.27 6.36L60.27 6.36L60.27 6.36C60.6967 5.86 61.39 5.61 62.35 5.61L62.35 5.61L62.35 5.61C62.7967 5.61 63.3 5.74667 63.86 6.02L63.86 6.02L63.86 5.81L63.86 5.81C63.8467 5.31 63.48 5.03667 62.76 4.99L62.76 4.99L62.76 4.99C61.94 4.99 61.3033 5.12667 60.85 5.4ZM63.86 8.2L63.86 8.2L63.86 7.43L63.86 7.43C63.68 7.07667 63.2467 6.9 62.56 6.9L62.56 6.9L62.56 6.9C61.74 6.99333 61.3067 7.31333 61.26 7.86L61.26 7.86L61.26 7.86C61.3067 8.4 61.74 8.69333 62.56 8.74L62.56 8.74L62.56 8.74C63.2467 8.74 63.68 8.56 63.86 8.2ZM69.4 5.91L69.4 5.91L69.4 10.25L67.48 10.25L67.48 3.62L69.4 3.41L69.4 4.03L69.4 4.03C69.86 3.62333 70.4067 3.42 71.04 3.42L71.04 3.42L71.04 3.42C71.9067 3.42 72.5667 3.68 73.02 4.2L73.02 4.2L73.02 4.2C73.4733 4.72667 73.7 5.33333 73.7 6.02L73.7 6.02L73.7 10.25L71.79 10.25L71.79 6.49L71.79 6.49C71.79 6.03667 71.6767 5.68333 71.45 5.43L71.45 5.43L71.45 5.43C71.2167 5.18333 70.87 5.05333 70.41 5.04L70.41 5.04L70.41 5.04C70.0167 5.06667 69.68 5.35667 69.4 5.91ZM77.22 10.25L75.31 10.25L75.31 3.41L77.22 3.41ZM75.24 1.78L75.24 1.78L75.24 1.78C75.24 2.05333 75.33 2.28 75.51 2.46L75.51 2.46L75.51 2.46C75.6967 2.64 75.95 2.73 76.27 2.73L76.27 2.73L76.27 2.73C76.5833 2.73 76.8333 2.64 77.02 2.46L77.02 2.46L77.02 2.46C77.2 2.28 77.29 2.05333 77.29 1.78L77.29 1.78L77.29 1.78C77.29 1.50667 77.2 1.27667 77.02 1.09L77.02 1.09L77.02 1.09C76.8333 0.903333 76.5767 0.81 76.25 0.81L76.25 0.81L76.25 0.81C75.9433 0.81 75.6967 0.903333 75.51 1.09L75.51 1.09L75.51 1.09C75.33 1.27667 75.24 1.50667 75.24 1.78ZM79.77 5.4L79.02 4.24L79.02 4.24C79.8867 3.69333 80.89 3.42 82.03 3.42L82.03 3.42L82.03 3.42C82.85 3.42 83.5 3.64667 83.98 4.1L83.98 4.1L83.98 4.1C84.4533 4.56 84.69 5.24333 84.69 6.15L84.69 6.15L84.69 10.25L82.78 10.25L82.78 9.71L82.78 9.71C82.2267 10.07 81.7267 10.25 81.28 10.25L81.28 10.25L81.28 10.25C80.3667 10.25 79.6833 10.0567 79.23 9.67L79.23 9.67L79.23 9.67C78.77 9.28333 78.54 8.75 78.54 8.07L78.54 8.07L78.54 8.07C78.54 7.43 78.7567 6.86 79.19 6.36L79.19 6.36L79.19 6.36C79.6167 5.86 80.3133 5.61 81.28 5.61L81.28 5.61L81.28 5.61C81.72 5.61 82.22 5.74667 82.78 6.02L82.78 6.02L82.78 5.81L82.78 5.81C82.7733 5.31 82.41 5.03667 81.69 4.99L81.69 4.99L81.69 4.99C80.87 4.99 80.23 5.12667 79.77 5.4ZM82.78 8.2L82.78 8.2L82.78 7.43L82.78 7.43C82.6 7.07667 82.1667 6.9 81.48 6.9L81.48 6.9L81.48 6.9C80.66 6.99333 80.2267 7.31333 80.18 7.86L80.18 7.86L80.18 7.86C80.2267 8.4 80.66 8.69333 81.48 8.74L81.48 8.74L81.48 8.74C82.1667 8.74 82.6 8.56 82.78 8.2Z"/>
 </g><g id="9269873b-566f-aa23-fe77-697bbc54db67" transform="matrix(1.76884721449525 0 0 1.76884721449525 -1.38657080261734 -8.30017790681782)" fill="none">
  <g id="g9" transform="translate(205, -207)" fill="none">
   <path id="path7" transform="translate(-196.8, 215.2)" fill="#ffd7d7" stroke="#000000" stroke-opacity="0" stroke-width="0" stroke-linecap="square" stroke-linejoin="bevel" d="M41.8 83.6C53 83.6 63.5 79.3 71.4 71.4C79.3 63.5 83.6 53 83.6 41.8C83.6 30.6 79.3 20.1 71.4 12.2C63.5 4.3 53 0 41.8 0C30.6 0 20.1 4.3 12.2 12.2C4.3 20.1 0 30.6 0 41.8C0 53 4.3 63.5 12.2 71.4C20.1 79.3 30.6 83.6 41.8 83.6ZM44.2 76.5C43.4 76.6 42.6 76.6 41.8 76.6C40.7 76.6 39.6 76.5 38.5 76.4C34.9 70.8 32.2 64.8 30.6 58.5L48.3 58.5C48.9 60 50 61.4 51.3 62.3C49.6 67.3 47.2 72 44.2 76.5ZM53.7 74.5C55.6 71 57.1 67.5 58.3 63.8C61.2 63.2 63.5 61.2 64.6 58.5L72.3 58.5C68.3 65.8 61.6 71.5 53.7 74.5ZM76.5 41.8C76.5 45.1 76 48.3 75.2 51.4L64.4 51.4C63.8 50.1 62.8 48.9 61.6 48C61.8 45.8 61.9 43.6 61.9 41.4C61.9 38.3 61.7 35.2 61.3 32.2L75.1 32.2C76.1 35.2 76.5 38.5 76.5 41.8ZM72.3 25.1L60.1 25.1C58.8 19.6 56.9 14.4 54.3 9.4C61.9 12.3 68.3 18 72.3 25.1ZM54.9 41.4C54.9 43.1 54.8 44.8 54.7 46.5C51.9 47.1 49.6 48.9 48.5 51.4L29.2 51.4C28.8 48.4 28.5 45.3 28.5 42.3C28.5 40.4 28.6 38.5 28.8 36.6C31.4 36.1 33.5 34.4 34.8 32.2L54.3 32.2C54.7 35.2 54.9 38.3 54.9 41.4ZM39.2 7.2C40.1 7.1 41 7.1 41.8 7.1C42.8 7.1 43.8 7.1 44.8 7.2C48.4 12.8 51.1 18.8 52.7 25.1L35.3 25.1C34.7 23.4 33.6 21.9 32.2 20.8C34 16 36.3 11.5 39.2 7.2ZM29.7 9.2C28 12.4 26.5 15.8 25.3 19.2C22.2 19.8 19.7 22.1 18.7 25L11.4 25C15.3 17.9 21.8 12.2 29.7 9.2ZM7.1 41.8C7.1 38.5 7.6 35.2 8.5 32.2L19.4 32.2C20 33.3 20.9 34.3 21.9 35.1C21.7 37.5 21.5 39.9 21.5 42.3C21.5 45.4 21.7 48.4 22.1 51.4L8.5 51.4C7.5 48.3 7.1 45.1 7.1 41.8ZM23.3 58.4C24.6 63.8 26.5 69.1 29.1 74.1C21.5 71.1 15.2 65.5 11.3 58.4Z"/>
  </g>
 </g>
</svg>
