<?xml version="1.0" standalone="no"?>
<!DOCTYPE svg PUBLIC "-//W3C//DTD SVG 20010904//EN" "http://www.w3.org/TR/2001/REC-SVG-20010904/DTD/svg10.dtd">
<!-- Created using Krita: https://krita.org -->
<svg xmlns="http://www.w3.org/2000/svg" 
    xmlns:xlink="http://www.w3.org/1999/xlink"
    xmlns:krita="http://krita.org/namespaces/svg/krita"
    xmlns:sodipodi="http://sodipodi.sourceforge.net/DTD/sodipodi-0.dtd"
    width="1431.36pt"
    height="1431.36pt"
    viewBox="0 0 1431.36 1431.36">
<defs/>
<path id="shape1" transform="matrix(0.999999988771475 0 0 0.999999988771475 447.383205399076 21.7222847016175)" fill="#d1515a" fill-rule="evenodd" stroke="#000000" stroke-opacity="0" stroke-width="0" stroke-linecap="square" stroke-linejoin="bevel" d="M27.405 440.994C3.75655 435.919 -4.58677 414.333 2.37501 376.238C9.33679 338.142 33.6454 205.373 76.7981 120.612C123.33 49.5922 178.367 7.65455 278.364 0C365.538 0.732039 422.447 36.3512 472.159 117.78C508.68 188.247 535.572 275.168 552.833 378.544C563.832 423.079 554.243 446.668 524.067 449.313C485.53 453.501 426.657 457.453 347.45 461.171C389.516 440.254 418.799 411.478 435.3 374.841C460.051 319.886 462.996 285.529 455.606 290.742C448.217 295.954 451.573 334.753 414.418 394.294C377.263 453.835 311.004 462.217 274.125 461.708C237.245 461.199 177.992 445.642 143.561 393.617C109.129 341.593 106.778 290.353 100.121 291.731C93.464 293.109 100.152 329.078 124.032 378.421C139.952 411.316 166.228 437.702 202.858 457.578C202.567 456.772 144.083 451.243 27.405 440.994Z"/><path id="shape0" transform="matrix(0.999999935446745 0 0 0.999999935446745 293.760027236309 505.138773686737)" fill="#d1515a" fill-rule="evenodd" stroke="#000000" stroke-opacity="0" stroke-width="0" stroke-linecap="square" stroke-linejoin="bevel" d="M843.84 572.819C843.84 244.514 781.252 1.41602 418.92 0C78.0598 3.49839 5.68434e-14 235.874 0 564.179C8.64 742.005 176.291 904.499 408.96 904.499C641.629 904.499 836.16 769.605 843.84 572.819Z"/>
</svg>
